<?xml version="1.0" encoding="UTF-8" standalone="no"?>
<svg width="358px" height="455px" viewBox="0 0 358 455" version="1.1" xmlns="http://www.w3.org/2000/svg" xmlns:xlink="http://www.w3.org/1999/xlink">
    <!-- Generator: Sketch 41.2 (35397) - http://www.bohemiancoding.com/sketch -->
    <title>Group 2</title>
    <desc>Created with Sketch.</desc>
    <defs>
        <filter x="-50%" y="-50%" width="200%" height="200%" filterUnits="objectBoundingBox" id="filter-1">
            <feOffset dx="-1" dy="2" in="SourceAlpha" result="shadowOffsetOuter1"></feOffset>
            <feGaussianBlur stdDeviation="2" in="shadowOffsetOuter1" result="shadowBlurOuter1"></feGaussianBlur>
            <feColorMatrix values="0 0 0 0 0   0 0 0 0 0   0 0 0 0 0  0 0 0 0.5 0" type="matrix" in="shadowBlurOuter1" result="shadowMatrixOuter1"></feColorMatrix>
            <feMerge>
                <feMergeNode in="shadowMatrixOuter1"></feMergeNode>
                <feMergeNode in="SourceGraphic"></feMergeNode>
            </feMerge>
        </filter>
        <filter x="-50%" y="-50%" width="200%" height="200%" filterUnits="objectBoundingBox" id="filter-2">
            <feOffset dx="-1" dy="2" in="SourceAlpha" result="shadowOffsetOuter1"></feOffset>
            <feGaussianBlur stdDeviation="2" in="shadowOffsetOuter1" result="shadowBlurOuter1"></feGaussianBlur>
            <feColorMatrix values="0 0 0 0 0   0 0 0 0 0   0 0 0 0 0  0 0 0 0.5 0" type="matrix" in="shadowBlurOuter1" result="shadowMatrixOuter1"></feColorMatrix>
            <feMerge>
                <feMergeNode in="shadowMatrixOuter1"></feMergeNode>
                <feMergeNode in="SourceGraphic"></feMergeNode>
            </feMerge>
        </filter>
        <filter x="-50%" y="-50%" width="200%" height="200%" filterUnits="objectBoundingBox" id="filter-3">
            <feOffset dx="-1" dy="2" in="SourceAlpha" result="shadowOffsetOuter1"></feOffset>
            <feGaussianBlur stdDeviation="2" in="shadowOffsetOuter1" result="shadowBlurOuter1"></feGaussianBlur>
            <feColorMatrix values="0 0 0 0 0   0 0 0 0 0   0 0 0 0 0  0 0 0 0.5 0" type="matrix" in="shadowBlurOuter1" result="shadowMatrixOuter1"></feColorMatrix>
            <feMerge>
                <feMergeNode in="shadowMatrixOuter1"></feMergeNode>
                <feMergeNode in="SourceGraphic"></feMergeNode>
            </feMerge>
        </filter>
        <filter x="-50%" y="-50%" width="200%" height="200%" filterUnits="objectBoundingBox" id="filter-4">
            <feGaussianBlur stdDeviation="3" in="SourceGraphic"></feGaussianBlur>
        </filter>
    </defs>
    <g id="Page-1" stroke="none" stroke-width="1" fill="none" fill-rule="evenodd">
        <g id="512" transform="translate(-84.000000, -50.000000)">
            <g id="Group-2" transform="translate(73.000000, 40.000000)">
                <rect id="Rectangle-5" fill="#B8C3D7" transform="translate(183.500000, 237.500000) rotate(10.000000) translate(-183.500000, -237.500000) " x="35" y="25" width="297" height="425" rx="69"></rect>
                <rect id="Rectangle-5-Copy-2" fill="#B8C3D7" transform="translate(196.500000, 240.500000) rotate(10.000000) translate(-196.500000, -240.500000) " x="48" y="28" width="297" height="425" rx="69"></rect>
                <rect id="Rectangle-5-Copy" fill="#5980A9" transform="translate(182.500000, 233.500000) rotate(-9.000000) translate(-182.500000, -233.500000) " x="34" y="21" width="297" height="425" rx="69"></rect>
                <g id="Asta" filter="url(#filter-1)" transform="translate(161.000000, 179.000000)">
                    <path d="M19,0 L36,218 C36,218 21.7200805,221 13,221 C4.27991952,221 0,216 0,216 L19,0 Z" id="Triangle-2" fill="#E8E3E3"></path>
                    <polygon id="Triangle-2-Copy" fill="#C6BCBC" points="22 3 39 221 5 221"></polygon>
                </g>
                <g id="faro" filter="url(#filter-2)" transform="translate(178.000000, 60.000000)">
                    <path d="M0,2.49614105 C0,0.566714778 1.45083609,-0.38730001 3.23227078,0.367257643 C3.23227078,0.367257643 6.74191572,1.82520981 6.91152599,1.99665023 C7.08113625,2.16809065 6.75466748,5.83015847 6.91152599,5.98870954 C6.91152599,7.05534976 7.11059252,84.4093482 6.91152599,88.8239402 C6.71245945,93.2385322 5.98698267,90.7776747 5.98698267,90.7776747 C4.46179097,89.6986569 1.65048373,88.8239402 0,88.8239402 L3.22537879,88.8239402 C1.44405127,88.8239402 0,87.2649227 0,85.3304049 L0,2.49614105 Z" id="Rectangle-3" fill="#ECE9E9"></path>
                    <rect id="Rectangle-3-Copy" fill="#CAC6C6" x="2" y="1" width="6" height="90" rx="3"></rect>
                    <g id="Group" transform="translate(2.000000, 10.000000)" fill="#F19E9E">
                        <rect id="Rectangle-4" x="0" y="0" width="6" height="5"></rect>
                        <rect id="Rectangle-4-Copy" x="0" y="30" width="6" height="5"></rect>
                        <rect id="Rectangle-4-Copy-4" x="0" y="40" width="6" height="5"></rect>
                        <rect id="Rectangle-4-Copy-5" x="0" y="50" width="6" height="5"></rect>
                        <rect id="Rectangle-4-Copy-6" x="0" y="60" width="6" height="5"></rect>
                        <rect id="Rectangle-4-Copy-7" x="0" y="70" width="6" height="5"></rect>
                        <rect id="Rectangle-4-Copy-2" x="0" y="20" width="6" height="5"></rect>
                        <rect id="Rectangle-4-Copy-3" x="0" y="10" width="6" height="5"></rect>
                    </g>
                </g>
                <g id="bola" filter="url(#filter-3)" transform="translate(122.000000, 140.000000)">
                    <circle id="Oval-11-Copy" fill="#ECE9E9" cx="57" cy="61" r="57"></circle>
                    <ellipse id="Oval-11-Copy-2" fill="#CAC6C6" cx="61" cy="62" rx="57" ry="57"></ellipse>
                    <path d="M65.3349128,4 C93.1406213,7.10611755 114.758657,30.6917598 114.758657,59.3265646 C114.758657,90.074154 89.8328105,115 59.0852212,115 C54.9350949,115 50.8910292,114.545901 47,113.68468 C49.0516106,113.913861 51.1369071,114.03155 53.2496916,114.03155 C83.9972809,114.03155 108.923127,89.1057044 108.923127,58.358115 C108.923127,31.7606519 90.2718662,9.51942422 65.3349128,4 Z" id="Combined-Shape" fill="#F2F2F2" transform="translate(80.879328, 59.500000) rotate(-7.000000) translate(-80.879328, -59.500000) "></path>
                    <path d="M4,60 C4,60 8.5,73 60.5,73 C112.5,73 118,56 117,57 M4,60 C4,60 8.5,75 60.5,75 C112.5,75 117,57 117,57" id="Combined-Shape" fill="#F2F1F1"></path>
                    <path d="M-19.4180749,42.4806063 C-19.4180749,42.4806063 -12.826337,77.9448346 39.173663,77.9448346 C91.173663,77.9448346 93.5819251,39.8139397 93.5819251,39.8139397 M-19.4180749,42.4806063 C-19.4180749,42.4806063 -13.1476091,80.2831887 38.8523909,80.2831887 C90.8523909,80.2831887 93.5819251,39.8139397 93.5819251,39.8139397" id="Combined-Shape-Copy-4" fill="#F2F1F1" transform="translate(37.081925, 60.048564) rotate(96.000000) translate(-37.081925, -60.048564) "></path>
                    <path d="M14,29 C14,29 17.5840708,42 59,42 C100.415929,42 105,25 104,26 M14,29 C14,29 17.5840708,44 59,44 C100.415929,44 104,26 104,26" id="Combined-Shape-Copy" fill="#F2F1F1"></path>
                    <path d="M8.98255025,87.9998477 C8.98255025,87.9998477 13.159048,102.999543 61.0174551,102.999543 C108.875862,102.999543 111.000307,86.0346002 112.98255,84.9998477 M8.98255025,87.9998477 C8.98255025,87.9998477 13.159048,104.999543 61.0174551,104.999543 C108.875862,104.999543 112.98255,84.9998477 112.98255,84.9998477" id="Combined-Shape-Copy-2" fill="#F2F1F1"></path>
                    <path d="M60,6 C60,6 30,58 51,118" id="Path-2" stroke="#F2F1F1"></path>
                    <path d="M64,7 C64,7 93,67 67,117" id="Path-2-Copy" stroke="#F2F1F1"></path>
                    <path d="M-19.4180749,42.4806063 C-19.4180749,42.4806063 -12.826337,77.9448346 39.173663,77.9448346 C91.173663,77.9448346 93.5819251,39.8139397 93.5819251,39.8139397 M-19.4180749,42.4806063 C-19.4180749,42.4806063 -13.1476091,80.2831887 38.8523909,80.2831887 C90.8523909,80.2831887 93.5819251,39.8139397 93.5819251,39.8139397" id="Combined-Shape-Copy-3" fill="#F2F1F1" transform="translate(37.081925, 60.048564) rotate(96.000000) translate(-37.081925, -60.048564) "></path>
                    <polygon id="Star-Copy" fill="#FFFEFE" filter="url(#filter-4)" points="90 54.9252329 83.2016261 58 84.5 51.4875388 79 46.8753882 86.6008131 45.9252329 90 40 93.3991869 45.9252329 101 46.8753882 95.5 51.4875388 96.7983739 58"></polygon>
                    <path d="" id="Path-3" stroke="#0C0C0C"></path>
                </g>
            </g>
        </g>
    </g>
</svg>